<svg width="29" height="29" viewBox="0 0 29 29" fill="none" xmlns="http://www.w3.org/2000/svg">
<circle cx="14.5" cy="14.5" r="14" stroke="#0B335B"/>
<path d="M20.3996 12H9.59933C9.48998 12.0003 9.3828 12.0272 9.28932 12.0777C9.19583 12.1282 9.11959 12.2004 9.0688 12.2867C9.01801 12.3729 8.99458 12.4698 9.00105 12.567C9.00752 12.6642 9.04364 12.758 9.10552 12.8383L14.5057 19.784C14.7295 20.072 15.2683 20.072 15.4927 19.784L20.8929 12.8383C20.9554 12.7582 20.992 12.6643 20.9988 12.567C21.0057 12.4696 20.9824 12.3725 20.9315 12.2861C20.8807 12.1996 20.8042 12.1273 20.7105 12.0769C20.6167 12.0264 20.5092 11.9998 20.3996 12Z" fill="#0B335B"/>
</svg>
