<svg width="336" height="364" viewBox="0 0 336 364" fill="none" xmlns="http://www.w3.org/2000/svg">
<g filter="url(#filter0_d_359_4)">
<path d="M24.4685 92.4735L147.55 13.8591C160.765 5.41839 177.693 5.47774 190.849 14.0109L311.767 92.4433C323.138 99.8184 330 112.449 330 126.002V238.37C330 252.234 322.82 265.11 311.026 272.398L190.113 347.108C177.31 355.018 161.152 355.074 148.296 347.252L25.2086 272.361C13.2805 265.104 6 252.152 6 238.189V126.184C6 112.532 12.9629 99.8223 24.4685 92.4735Z" fill="url(#paint0_linear_359_4)"/>
</g>
<g filter="url(#filter1_d_359_4)">
<path d="M157.507 172.369L172.034 124L230 124.096V151.175H192.363V169.929H227.747V199.879H192.363V218.538H229.904V245.952L132 246L175.918 172.369H157.507Z" fill="url(#paint1_linear_359_4)"/>
</g>
<g filter="url(#filter2_d_359_4)">
<path d="M171 124H85V150.984H110.548V246H131.348L151.435 195.095H126.647L171 124Z" fill="url(#paint2_linear_359_4)"/>
</g>
<defs>
<filter id="filter0_d_359_4" x="0" y="5.56956" width="336" height="357.51" filterUnits="userSpaceOnUse" color-interpolation-filters="sRGB">
<feFlood flood-opacity="0" result="BackgroundImageFix"/>
<feColorMatrix in="SourceAlpha" type="matrix" values="0 0 0 0 0 0 0 0 0 0 0 0 0 0 0 0 0 0 127 0" result="hardAlpha"/>
<feOffset dy="4"/>
<feGaussianBlur stdDeviation="3"/>
<feComposite in2="hardAlpha" operator="out"/>
<feColorMatrix type="matrix" values="0 0 0 0 0 0 0 0 0 0 0 0 0 0 0 0 0 0 0.45 0"/>
<feBlend mode="normal" in2="BackgroundImageFix" result="effect1_dropShadow_359_4"/>
<feBlend mode="normal" in="SourceGraphic" in2="effect1_dropShadow_359_4" result="shape"/>
</filter>
<filter id="filter1_d_359_4" x="112" y="112" width="138" height="162" filterUnits="userSpaceOnUse" color-interpolation-filters="sRGB">
<feFlood flood-opacity="0" result="BackgroundImageFix"/>
<feColorMatrix in="SourceAlpha" type="matrix" values="0 0 0 0 0 0 0 0 0 0 0 0 0 0 0 0 0 0 127 0" result="hardAlpha"/>
<feOffset dy="8"/>
<feGaussianBlur stdDeviation="10"/>
<feComposite in2="hardAlpha" operator="out"/>
<feColorMatrix type="matrix" values="0 0 0 0 0 0 0 0 0 0 0 0 0 0 0 0 0 0 1 0"/>
<feBlend mode="normal" in2="BackgroundImageFix" result="effect1_dropShadow_359_4"/>
<feBlend mode="normal" in="SourceGraphic" in2="effect1_dropShadow_359_4" result="shape"/>
</filter>
<filter id="filter2_d_359_4" x="65" y="112" width="126" height="162" filterUnits="userSpaceOnUse" color-interpolation-filters="sRGB">
<feFlood flood-opacity="0" result="BackgroundImageFix"/>
<feColorMatrix in="SourceAlpha" type="matrix" values="0 0 0 0 0 0 0 0 0 0 0 0 0 0 0 0 0 0 127 0" result="hardAlpha"/>
<feOffset dy="8"/>
<feGaussianBlur stdDeviation="10"/>
<feComposite in2="hardAlpha" operator="out"/>
<feColorMatrix type="matrix" values="0 0 0 0 0 0 0 0 0 0 0 0 0 0 0 0 0 0 1 0"/>
<feBlend mode="normal" in2="BackgroundImageFix" result="effect1_dropShadow_359_4"/>
<feBlend mode="normal" in="SourceGraphic" in2="effect1_dropShadow_359_4" result="shape"/>
</filter>
<linearGradient id="paint0_linear_359_4" x1="168" y1="79.5" x2="168" y2="231" gradientUnits="userSpaceOnUse">
<stop stop-color="#1B1D20"/>
<stop offset="1" stop-color="#38393A"/>
</linearGradient>
<linearGradient id="paint1_linear_359_4" x1="181" y1="124" x2="181" y2="246" gradientUnits="userSpaceOnUse">
<stop stop-color="#BDBDBD"/>
<stop offset="1" stop-color="white"/>
</linearGradient>
<linearGradient id="paint2_linear_359_4" x1="96.3158" y1="124" x2="139.298" y2="245.847" gradientUnits="userSpaceOnUse">
<stop stop-color="#BDBDBD"/>
<stop offset="1" stop-color="white"/>
</linearGradient>
</defs>
</svg>
